<svg width="68" height="43" viewBox="0 0 68 43" fill="none" xmlns="http://www.w3.org/2000/svg">
<path d="M12.0889 28.334C18.5693 28.334 21.8096 30.46 21.8096 34.7119C21.8096 37.2549 20.7227 39.1826 18.5488 40.4951C16.375 41.8213 13.709 42.4844 10.5508 42.4844C5.76562 42.4844 2.55273 41.5342 0.912109 39.6338C0.310547 38.9502 0.00976562 38.2188 0.00976562 37.4395C0.00976562 36.1543 0.419922 35.0742 1.24023 34.1992C2.06055 33.3242 3.10645 32.7021 4.37793 32.333C3.27051 32.1416 2.34766 31.6768 1.60938 30.9385C0.871094 30.2002 0.501953 29.4551 0.501953 28.7031C0.501953 27.4727 0.84375 26.4268 1.52734 25.5654C2.22461 24.6904 3.09277 23.9863 4.13184 23.4531C2.0127 22.0176 0.953125 20.1104 0.953125 17.7314C0.953125 15.3525 1.84863 13.418 3.63965 11.9277C5.44434 10.4375 7.52246 9.69238 9.87402 9.69238C12.2393 9.69238 14.2354 10.2051 15.8623 11.2305C16.6416 11.0938 17.2568 10.8408 17.708 10.4717C16.833 9.96582 16.3955 9.31641 16.3955 8.52344C16.3955 7.7168 16.5732 7.12891 16.9287 6.75977C17.5713 6.07617 18.248 5.73438 18.959 5.73438C19.6699 5.73438 20.2715 5.97363 20.7637 6.45215C21.2695 6.93066 21.5225 7.60059 21.5225 8.46191C21.5225 9.32324 21.0508 10.1436 20.1074 10.9229C19.1777 11.6885 18.2412 12.167 17.2979 12.3584C18.8154 13.8486 19.5742 15.6465 19.5742 17.752C19.5742 19.8574 18.665 21.6211 16.8467 23.043C15.042 24.4512 12.8135 25.1553 10.1611 25.1553C8.39746 25.1553 6.81836 24.834 5.42383 24.1914C3.97461 24.8066 3.25 25.6064 3.25 26.5908C3.25 27.7529 4.27539 28.334 6.32617 28.334H12.0889ZM10.1406 23.4531C13.0938 23.4531 14.5703 21.4434 14.5703 17.4238C14.5703 13.4043 13.1279 11.3945 10.2432 11.3945C7.94629 11.3945 6.58594 12.6523 6.16211 15.168C6.02539 15.9199 5.95703 16.7197 5.95703 17.5674C5.95703 20.4385 6.6543 22.25 8.04883 23.002C8.5957 23.3027 9.29297 23.4531 10.1406 23.4531ZM4.00879 36.8242C4.00879 39.4629 6.25781 40.7822 10.7559 40.7822C13.0527 40.7822 14.8301 40.3721 16.0879 39.5518C17.3594 38.7314 17.9951 37.7061 17.9951 36.4756C17.9951 34.7803 17.1816 33.6045 15.5547 32.9482C14.9668 32.7158 14.249 32.5996 13.4014 32.5996H7.14648C6.2168 32.8457 5.45801 33.3516 4.87012 34.1172C4.2959 34.8828 4.00879 35.7852 4.00879 36.8242ZM32.6992 12.8506C34.9004 10.7314 37.2793 9.67188 39.8359 9.67188C40.6562 9.67188 41.3809 9.94531 42.0098 10.4922C42.6387 11.0391 42.9531 11.7432 42.9531 12.6045C42.9531 13.4521 42.6865 14.1426 42.1533 14.6758C41.6201 15.209 40.9707 15.4756 40.2051 15.4756C39.4395 15.4756 38.79 15.2158 38.2568 14.6963C37.7373 14.1631 37.4775 13.5068 37.4775 12.7275C37.4775 12.4131 37.5322 12.0918 37.6416 11.7637C35.6592 12.3652 34.0117 13.3838 32.6992 14.8193V29.4209H37.1904V31H24.2705V29.4209H27.3262V11.6201H24.25V10.0205H32.6992V12.8506ZM59.1748 28.6826C57.5889 30.501 55.4629 31.4102 52.7969 31.4102C50.7734 31.4102 49.0303 30.8496 47.5674 29.7285C46.1045 28.5938 45.373 27.1172 45.373 25.2988C45.373 23.4668 46.0908 22.0312 47.5264 20.9922C48.9619 19.9395 50.8076 19.4131 53.0635 19.4131C55.333 19.4131 57.2266 19.9805 58.7441 21.1152V16.2344C58.7441 14.5801 58.5391 13.459 58.1289 12.8711C57.7188 12.2832 57.2334 11.873 56.6729 11.6406C56.126 11.4082 55.5176 11.292 54.8477 11.292C53.7949 11.292 52.9062 11.415 52.1816 11.6611C51.457 11.8936 50.9717 12.1328 50.7256 12.3789C51.3545 12.5703 51.8398 13.0488 52.1816 13.8145C52.291 14.0879 52.3457 14.416 52.3457 14.7988C52.3457 15.5508 52.0723 16.1797 51.5254 16.6855C50.9785 17.1777 50.4316 17.4238 49.8848 17.4238C48.9277 17.4238 48.1826 17.1709 47.6494 16.665C47.1162 16.1592 46.8496 15.5508 46.8496 14.8398C46.8496 14.1289 46.9795 13.5479 47.2393 13.0967C47.499 12.6318 47.8477 12.2148 48.2852 11.8457C49.1191 11.1484 50.165 10.6152 51.4229 10.2461C52.6943 9.87695 53.8838 9.69238 54.9912 9.69238C58.0674 9.69238 60.3438 10.3145 61.8203 11.5586C63.2969 12.8027 64.0352 14.5391 64.0352 16.7676V27.6982C64.0352 28.833 64.3154 29.4004 64.876 29.4004C65.4365 29.4004 65.9766 29.0586 66.4961 28.375L67.5625 29.2568C66.6328 30.665 65.1152 31.3691 63.0098 31.3691C62.2715 31.3691 61.5195 31.1367 60.7539 30.6719C60.002 30.207 59.4756 29.5439 59.1748 28.6826ZM58.8057 22.9404C57.6436 21.8057 56.3721 21.2383 54.9912 21.2383C53.6104 21.2383 52.5713 21.5664 51.874 22.2227C51.1768 22.8652 50.8281 23.9043 50.8281 25.3398C50.8281 27.459 51.5732 28.7441 53.0635 29.1953C53.4873 29.332 53.918 29.4004 54.3555 29.4004C55.5996 29.4004 56.7891 28.9219 57.9238 27.9648C58.252 27.6777 58.5459 27.3701 58.8057 27.042V22.9404ZM62.5381 2.76074C62.5381 4.01855 62.0186 4.85938 60.9795 5.2832C60.665 5.41992 60.3301 5.48828 59.9746 5.48828C59.3047 5.48828 58.7168 5.25586 58.2109 4.79102C57.7188 4.3125 57.4727 3.80664 57.4727 3.27344C57.4727 2.39844 57.7188 1.71484 58.2109 1.22266C58.7168 0.744141 59.2227 0.504883 59.7285 0.504883C60.6172 0.504883 61.3076 0.750977 61.7998 1.24316C62.292 1.73535 62.5381 2.24121 62.5381 2.76074ZM53.1865 2.76074C53.1865 4.01855 52.667 4.85938 51.6279 5.2832C51.3135 5.41992 50.9785 5.48828 50.623 5.48828C49.9531 5.48828 49.3652 5.25586 48.8594 4.79102C48.3672 4.3125 48.1211 3.80664 48.1211 3.27344C48.1211 2.39844 48.3672 1.71484 48.8594 1.22266C49.3652 0.744141 49.8711 0.504883 50.377 0.504883C51.2656 0.504883 51.9561 0.750977 52.4482 1.24316C52.9404 1.73535 53.1865 2.24121 53.1865 2.76074Z" fill="black"/>
</svg>
